<svg width="21" height="21" viewBox="0 0 21 21" fill="none" xmlns="http://www.w3.org/2000/svg">
    <path
        d="M9.41227 7.94815V9.09565H8.57227V10.4982H9.41227V14.6673H11.1389V10.4982H12.2973C12.2973 10.4982 12.4064 9.82565 12.4589 9.08982H11.1456V8.13148C11.1456 7.98732 11.3339 7.79482 11.5206 7.79482H12.4606V6.33398H11.1814C9.36977 6.33398 9.41227 7.73815 9.41227 7.94815Z"
        fill="#1083E6" />
    <path
        d="M5.50033 3.83366C5.0583 3.83366 4.63437 4.00925 4.32181 4.32181C4.00925 4.63437 3.83366 5.0583 3.83366 5.50033V15.5003C3.83366 15.9424 4.00925 16.3663 4.32181 16.6788C4.63437 16.9914 5.0583 17.167 5.50033 17.167H15.5003C15.9424 17.167 16.3663 16.9914 16.6788 16.6788C16.9914 16.3663 17.167 15.9424 17.167 15.5003V5.50033C17.167 5.0583 16.9914 4.63437 16.6788 4.32181C16.3663 4.00925 15.9424 3.83366 15.5003 3.83366H5.50033ZM5.50033 2.16699H15.5003C16.3844 2.16699 17.2322 2.51818 17.8573 3.1433C18.4825 3.76842 18.8337 4.61627 18.8337 5.50033V15.5003C18.8337 16.3844 18.4825 17.2322 17.8573 17.8573C17.2322 18.4825 16.3844 18.8337 15.5003 18.8337H5.50033C4.61627 18.8337 3.76842 18.4825 3.1433 17.8573C2.51818 17.2322 2.16699 16.3844 2.16699 15.5003V5.50033C2.16699 4.61627 2.51818 3.76842 3.1433 3.1433C3.76842 2.51818 4.61627 2.16699 5.50033 2.16699Z"
        fill="#1083E6" />
</svg>