<svg width="20" height="21" viewBox="0 0 20 21" fill="none" xmlns="http://www.w3.org/2000/svg">
    <g clipPath="url(#clip0_2054_30528)">
        <path
            d="M20 10.5026C20 9.7008 20.1474 9.44271 20 8.83594H10V12.1693H15.8333C15.7199 13.0686 14.6949 14.5925 13.3333 15.5026L16.6667 18.0026C18.5955 16.3014 20 13.4715 20 10.5026Z"
            fill="#4285F4" />
        <path
            d="M9.9987 20.4974C12.7469 20.4974 14.9802 19.5901 16.6654 17.9974L13.332 15.4974C12.4725 16.1091 11.5141 16.3307 9.9987 16.3307C7.30705 16.3307 4.97973 14.6687 4.16536 12.1641L0.832031 14.6641C2.50582 18.0574 6.01771 20.4974 9.9987 20.4974Z"
            fill="#34A853" />
        <path
            d="M4.16667 13.0026C3.96263 12.3707 4.16667 12.0355 4.16667 11.3359C4.16667 10.6363 3.97337 9.46782 4.16667 8.83594L0.833333 6.33594C0.178287 7.71257 0 9.6998 0 11.3359C0 12.9721 0.178287 14.126 0.833333 15.5026L4.16667 13.0026Z"
            fill="#FBBC05" />
        <path
            d="M9.9987 4.66667C11.9018 4.66667 13.4334 5.62922 14.1654 6.33333L16.6654 3C14.9087 1.32641 12.7351 0.5 9.9987 0.5C6.0347 0.5 2.49868 2.94 0.832031 6.33333L4.16536 8.83333C4.98751 6.32872 7.31853 4.66667 9.9987 4.66667Z"
            fill="#EB4335" />
    </g>
    <defs>
        <clipPath id="clip0_2054_30528">
            <rect width="20" height="20" fill="white" transform="translate(0 0.5)" />
        </clipPath>
    </defs>
</svg>